<?xml version="1.0" encoding="UTF-8"?><svg id="Calque_2" xmlns="http://www.w3.org/2000/svg" viewBox="0 0 436.19 262.95"><g id="Warstwa_1"><g><path d="M232.45,167.82h-12.06v-34.67c0-7.3-3.22-11.23-9.07-11.69-3.64-.28-9.42,.58-13.61,1.52v44.84h-12.07v-53.43s14.68-3.27,27.93-3.26c5.73,0,10.32,2.04,13.74,5.48,3.43,3.43,5.14,8.21,5.14,14.35v36.87Z" style="fill:#404041;"/><path d="M435.98,168.19c-1.98,.51-4.04,.76-6.18,.76-6.8,0-11.29-1.51-13.48-4.54-1.75-2.38-2.62-6.89-2.62-13.52v-55.6h11.91v15.72h10.57v9.73h-10.57v29.39c0,3.17,.4,5.27,1.21,6.28,.95,1.29,2.98,1.94,6.07,1.94,.88,0,1.91-.07,3.08-.21v10.05Z" style="fill:#404041;"/><path d="M63.12,131.63s-14.13,5.46-31.56,5.46S0,131.63,0,131.63c0,0,14.13-5.46,31.56-5.46s31.56,5.46,31.56,5.46" style="fill:#ffcb04;"/><path d="M106.76,51.3s-12.52-8.43-22.27-22.6C74.75,14.54,71.46,0,71.46,0c0,0,12.52,8.43,22.27,22.6,9.75,14.17,13.03,28.7,13.03,28.7" style="fill:#ffcb04;"/><path d="M74.8,85.96s-15.09-1.68-30.48-9.7c-15.39-8.02-25.25-19.35-25.25-19.35,0,0,15.09,1.68,30.48,9.7,15.39,8.02,25.25,19.35,25.25,19.35" style="fill:#ffcb04;"/><path d="M105.25,157.93c8.96-.09,19.76-7.14,19.76-7.14,0,0-25.05-7.58-23.48-30.05,4.94-36.88,34.8-65.83,72.17-70.49-3.96-.55-8.01-.83-12.13-.82-46.23,.21-83.54,37.12-83.33,82.44,.21,45.32,37.85,81.9,84.09,81.7,3.86-.02,7.64-.31,11.36-.82-32.8-4.1-59.5-26.78-69.08-56.74" style="fill:#ffcb04;"/><path d="M106.76,211.64s-12.52,8.43-22.27,22.6c-9.74,14.16-13.03,28.7-13.03,28.7,0,0,12.52-8.43,22.27-22.6,9.75-14.17,13.03-28.71,13.03-28.71" style="fill:#ffcb04;"/><path d="M74.8,176.98s-15.09,1.68-30.48,9.71c-15.39,8.02-25.25,19.35-25.25,19.35,0,0,15.09-1.68,30.48-9.7,15.39-8.02,25.25-19.35,25.25-19.35" style="fill:#ffcb04;"/><rect x="161.41" y="95.22" width="12.3" height="72.53" style="fill:#404041;"/><path d="M297.2,120.01c0,7.42-2.3,13.39-6.89,17.9-4.6,4.5-10.83,6.75-18.7,6.75h-14.92v22.92h-12.3V95.04h26.34c8.53,0,15.07,2.22,19.63,6.65,4.56,4.43,6.84,10.54,6.84,18.32m-12.43,0c0-8.79-4.3-13.19-12.9-13.19h-15.17v26.17h14.95c4.12,0,7.34-1.13,9.65-3.41,2.31-2.27,3.47-5.46,3.47-9.57" style="fill:#404041;"/><path d="M354.15,139.02c0,8.72-2.44,15.75-7.33,21.08-4.89,5.34-11.23,8-19.02,8s-14.13-2.66-19.02-8c-4.89-5.33-7.33-12.36-7.33-21.08s2.44-15.73,7.33-21.03c4.89-5.29,11.23-7.94,19.02-7.94s14.23,2.65,19.08,7.94c4.85,5.3,7.28,12.31,7.28,21.03m-12.46,.06c0-5.46-1.27-9.79-3.8-12.99-2.54-3.2-5.9-4.8-10.1-4.8s-7.55,1.62-10.09,4.85c-2.53,3.24-3.8,7.54-3.8,12.94s1.27,9.79,3.8,12.99c2.54,3.2,5.91,4.8,10.09,4.8s7.55-1.6,10.1-4.8c2.53-3.2,3.8-7.53,3.8-12.99" style="fill:#404041;"/><path d="M406.56,149.07c0,5.48-2.13,9.98-6.4,13.52-4.26,3.53-9.89,5.29-16.87,5.29-10.89,0-19.3-3.24-25.26-9.73l9.15-7.67c4.56,4.47,9.89,6.7,15.99,6.7,3.39,0,6.07-.67,8.05-2,1.98-1.33,2.98-3.01,2.98-5.03,0-2.3-1.14-3.89-3.42-4.76-1.32-.5-4.85-1.19-10.59-2.06-6.91-1.01-11.84-2.52-14.78-4.54-3.45-2.45-5.18-6.13-5.18-11.02s2.09-9.14,6.28-12.49c4.19-3.35,9.78-5.03,16.77-5.03,8.45,0,15.66,2.78,21.61,8.33l-7.17,7.57c-4.34-3.82-9.26-5.73-14.78-5.73-7.06,0-10.58,1.99-10.58,5.95,0,2.3,1.61,3.89,4.85,4.76,4.55,.72,9.08,1.48,13.56,2.27,10.51,1.95,15.77,7.17,15.77,15.68" style="fill:#404041;"/></g></g></svg>